<svg xmlns="http://www.w3.org/2000/svg" width="40" height="42.628" viewBox="0 0 40 42.628"><defs><style>.a{fill:#707070;}</style></defs><g transform="translate(40) rotate(90)"><path class="a" d="M7.3,38.248A5.764,5.764,0,0,0,11.387,40h5.547a5.764,5.764,0,0,0,4.088-1.752L40.876,18.1a5.645,5.645,0,0,0,0-8.175L32.7,1.752a5.645,5.645,0,0,0-8.175,0L1.752,24.526a5.645,5.645,0,0,0,0,8.175ZM26.569,3.8a2.822,2.822,0,0,1,4.088,0h0l8.175,8.175a2.822,2.822,0,0,1,0,4.088h0L28.613,26.569,16.058,14.015ZM3.8,26.569,14.015,16.35,26.277,28.613,18.686,36.2a2.651,2.651,0,0,1-2.044.876H11.387A2.651,2.651,0,0,1,9.343,36.2L3.8,30.657A2.822,2.822,0,0,1,3.8,26.569Z" transform="translate(0 0)"/></g></svg>