<svg xmlns="http://www.w3.org/2000/svg" width="40" height="40.036" viewBox="0 0 40 40.036"><defs><style>.a{fill:#707070;}</style></defs><g transform="translate(79.978 13.055) rotate(90)"><path class="a" d="M.648,39.978h4a.72.72,0,0,0,.466-.2L27.038,20.118l.067-.067,11.862-13.4a4.012,4.012,0,0,0-6-5.331h0L.115,38.911a.648.648,0,0,0,.067.933A1.235,1.235,0,0,0,.648,39.978ZM26.039,19.252,9.578,33.98h-3.4L33.1,3.258l3.932,3.465ZM33.1,3.258c.666.6,1.333,1.133,2,1.733l2,1.8m.6-4.8h0M5.047,35.313H8.112L4.38,38.645H2.114Z" transform="translate(-13 40)"/></g></svg>