<svg xmlns="http://www.w3.org/2000/svg" width="27.304" height="40" viewBox="0 0 27.304 40"><defs><style>.a{fill:#707070;}</style></defs><g transform="translate(0 -952.4)"><path class="a" d="M12.742,952.4A3.612,3.612,0,0,0,9.1,956v1.047a3.56,3.56,0,0,0-1.82-.546,3.613,3.613,0,0,0-3.64,3.595v6.6A4.524,4.524,0,0,0,0,971.058v6.826c0,2.275,1.274,4.551,2.73,6.553a38.011,38.011,0,0,0,4.1,4.687v2.366a.979.979,0,0,0,.91.91H23.208a.979.979,0,0,0,.91-.91V986.8a11.752,11.752,0,0,0,3.185-8.055V963.686a3.642,3.642,0,0,0-3.641-3.595,3.559,3.559,0,0,0-1.82.546V958.68a3.642,3.642,0,0,0-3.64-3.595,3.363,3.363,0,0,0-1.866.591A3.612,3.612,0,0,0,12.742,952.4Zm0,1.82A1.76,1.76,0,0,1,14.562,956v15.973a.913.913,0,0,0,.91.91.944.944,0,0,0,.91-.91V958.725a1.821,1.821,0,0,1,3.641,0v13.242a.913.913,0,0,0,.91.91.944.944,0,0,0,.91-.91v-8.282a1.822,1.822,0,0,1,3.64.046v15.063a9.969,9.969,0,0,1-2.912,7.1.9.9,0,0,0-.273.637v4.1H8.646v-1.82a.826.826,0,0,0-.273-.637,43.892,43.892,0,0,1-4.187-4.778c-1.365-1.911-2.366-3.959-2.366-5.506v-6.826a2.709,2.709,0,0,1,1.82-2.594v8.51a.913.913,0,0,0,.91.91.944.944,0,0,0,.91-.91V960.091a1.759,1.759,0,0,1,1.82-1.775,1.759,1.759,0,0,1,1.82,1.775v11.877a.913.913,0,0,0,.91.91.944.944,0,0,0,.91-.91V956A1.76,1.76,0,0,1,12.742,954.22Z"/></g></svg>