<svg xmlns="http://www.w3.org/2000/svg" width="40" height="39.979" viewBox="0 0 40 39.979"><defs><style>.a{fill:#707070;}</style></defs><g transform="translate(40.018 -0.004) rotate(90)"><path class="a" d="M37.9,5.069,34.924,2.091A7.032,7.032,0,0,0,29.213.051,7.506,7.506,0,0,0,24.643,2.3L4.286,22.653a2.011,2.011,0,0,0-.571.979L.084,37.217a2.244,2.244,0,0,0,2.733,2.733L16.362,36.32a1.845,1.845,0,0,0,.979-.571L37.9,15.187A7.19,7.19,0,0,0,37.9,5.069ZM10.976,22.245,23.5,9.72l6.813,6.813L17.749,29.017Zm-3.141,3.1,6.813,6.813L5.387,34.647Zm26.926-13.3-1.346,1.346L26.6,6.579l1.346-1.346a2.786,2.786,0,0,1,3.835,0l2.978,2.978A2.709,2.709,0,0,1,34.761,12.046Z" transform="translate(0)"/></g></svg>