<svg xmlns="http://www.w3.org/2000/svg" width="34.07" height="40" viewBox="0 0 34.07 40"><defs><style>.a{fill:#707070;}</style></defs><g transform="translate(0.002)"><path class="a" d="M34.068,19.306a3.842,3.842,0,0,0-3.828-3.828,3.95,3.95,0,0,0-2.187.673,3.758,3.758,0,0,0-3.533-2.4,3.95,3.95,0,0,0-2.187.673,3.846,3.846,0,0,0-5.468-1.893V3.828A3.656,3.656,0,0,0,15.73,1.136,3.825,3.825,0,0,0,13.038,0h0A3.842,3.842,0,0,0,9.21,3.828V23.47L6.56,20.82a3.882,3.882,0,0,0-4.879-.463,3.73,3.73,0,0,0-1.64,2.65,3.915,3.915,0,0,0,.841,3.028L8.706,35.5A12.342,12.342,0,0,0,18.253,40h4.879A10.914,10.914,0,0,0,34.068,29.064ZM29.526,35.415a8.973,8.973,0,0,1-6.393,2.65H18.253a10.557,10.557,0,0,1-8.076-3.785L2.354,24.774a1.957,1.957,0,0,1-.421-1.514,1.932,1.932,0,0,1,.841-1.346,2.085,2.085,0,0,1,1.094-.336,1.979,1.979,0,0,1,1.388.589l3.155,3.113a1.621,1.621,0,0,0,1.767.336A1.662,1.662,0,0,0,11.187,24.1V3.828a1.859,1.859,0,0,1,1.851-1.935h0a1.946,1.946,0,0,1,1.346.547,1.841,1.841,0,0,1,.547,1.346V17.75a.967.967,0,0,0,1.935,0V15.857A1.9,1.9,0,0,1,18.8,13.964a1.921,1.921,0,0,1,1.935,1.893v3.617a.967.967,0,1,0,1.935,0V17.581A1.9,1.9,0,0,1,24.6,15.689a1.921,1.921,0,0,1,1.935,1.893v3.659a.967.967,0,0,0,1.935,0V19.348a1.893,1.893,0,0,1,3.785,0v9.674A9.423,9.423,0,0,1,29.526,35.415Z" transform="translate(0 0)"/></g></svg>