<svg xmlns="http://www.w3.org/2000/svg" width="39.956" height="40" viewBox="0 0 39.956 40"><defs><style>.a{fill:#6b6b6b;}</style></defs><g transform="translate(0 -952.4)"><path class="a" d="M15.556,952.4a15.556,15.556,0,1,0,10,27.467l2.311,2.311-.844.844a1.289,1.289,0,0,0,0,1.867L34.133,992A1.289,1.289,0,0,0,36,992h0l3.556-3.556a1.289,1.289,0,0,0,0-1.867h0l-7.111-7.111a1.305,1.305,0,0,0-1.778-.089l-.089.089-.844.844L27.422,978a15.585,15.585,0,0,0-11.867-25.6Zm0,2.622A12.889,12.889,0,1,1,2.667,967.911,12.87,12.87,0,0,1,15.556,955.022Zm16,27.245,5.244,5.245L35.111,989.2l-5.244-5.245Z"/></g></svg>